<svg xmlns="http://www.w3.org/2000/svg" width="720" height="700" viewBox="0 0 720 700">
  <defs>
    <style>
      .t { font-family: 'JetBrains Mono', 'SF Mono', 'Menlo', 'Monaco', 'Consolas', monospace; font-size: 13px; }
      .tb { font-family: 'JetBrains Mono', 'SF Mono', 'Menlo', 'Monaco', 'Consolas', monospace; font-size: 13px; font-weight: 700; }
      .dim { opacity: 0.5; }
      .g { fill: #a6e3a1; }
      .c { fill: #89dceb; }
      .w { fill: #cdd6f4; }
      .bw { fill: #ffffff; }
      .d { fill: #6c7086; }
    </style>
  </defs>

  <!-- Window -->
  <rect width="720" height="700" rx="10" ry="10" fill="#1e1e2e"/>
  <rect width="720" height="36" rx="10" ry="10" fill="#313244"/>
  <rect y="26" width="720" height="10" fill="#313244"/>
  <circle cx="20" cy="18" r="6" fill="#f38ba8"/>
  <circle cx="40" cy="18" r="6" fill="#f9e2af"/>
  <circle cx="60" cy="18" r="6" fill="#a6e3a1"/>
  <text x="360" y="23" text-anchor="middle" class="t d">meridian deploy</text>

  <g transform="translate(24, 58)">
    <!-- Prompt -->
    <text y="0" class="t d">$</text>
    <text x="16" y="0" class="t bw">meridian deploy 198.51.100.42</text>

    <!-- Version -->
    <text x="0" y="32" class="t w">  Meridian v3.6.0</text>

    <!-- Config -->
    <text x="0" y="62" class="t c">  &#x2192; Configuring server at 198.51.100.42...</text>
    <text x="0" y="80" class="t c">  &#x2192; XHTTP: enabled (enhanced stealth)</text>

    <!-- Steps: fresh deploy -->
    <text x="0" y="112" class="t g">  &#x2713;</text>
    <text x="24" y="112" class="t w">Install system packages</text>

    <text x="0" y="134" class="t g">  &#x2713;</text>
    <text x="24" y="134" class="t w">Enable automatic security updates</text>

    <text x="0" y="156" class="t g">  &#x2713;</text>
    <text x="24" y="156" class="t w">Set timezone to UTC</text>

    <text x="0" y="178" class="t g">  &#x2713;</text>
    <text x="24" y="178" class="t w">Harden SSH configuration</text>

    <text x="0" y="200" class="t g">  &#x2713;</text>
    <text x="24" y="200" class="t w">Enable BBR congestion control</text>

    <text x="0" y="222" class="t g">  &#x2713;</text>
    <text x="24" y="222" class="t w">Configure firewall</text>

    <text x="0" y="244" class="t g">  &#x2713;</text>
    <text x="24" y="244" class="t w">Install Docker</text>

    <text x="0" y="266" class="t g">  &#x2713;</text>
    <text x="24" y="266" class="t w">Deploy 3x-ui panel</text>

    <text x="0" y="288" class="t g">  &#x2713;</text>
    <text x="24" y="288" class="t w">Configure panel</text>

    <text x="0" y="310" class="t g">  &#x2713;</text>
    <text x="24" y="310" class="t w">Log in to panel</text>

    <text x="0" y="332" class="t g">  &#x2713;</text>
    <text x="24" y="332" class="t w">Create Reality inbound</text>

    <text x="0" y="354" class="t g">  &#x2713;</text>
    <text x="24" y="354" class="t w">Create XHTTP inbound</text>

    <text x="0" y="376" class="t g">  &#x2713;</text>
    <text x="24" y="376" class="t w">Verify Xray configuration</text>

    <text x="0" y="398" class="t g">  &#x2713;</text>
    <text x="24" y="398" class="t w">Install HAProxy</text>

    <text x="0" y="420" class="t g">  &#x2713;</text>
    <text x="24" y="420" class="t w">Install Caddy</text>

    <text x="0" y="442" class="t g">  &#x2713;</text>
    <text x="24" y="442" class="t w">Deploy connection page</text>

    <!-- Success line -->
    <text x="0" y="474" class="t g">  &#x2713; All steps completed successfully</text>

    <!-- Done block -->
    <text x="0" y="510" class="tb g">  Done!</text>

    <text x="0" y="536" class="t g">  &#x2713;</text>
    <text x="24" y="536" class="t w">Your proxy server is live and ready to use.</text>

    <text x="0" y="566" class="tb bw">  Next steps:</text>

    <text x="0" y="592" class="t g">  1.</text>
    <text x="30" y="592" class="t w">Share this link with whoever needs access:</text>
    <text x="30" y="612" class="tb c">     https://198.51.100.42/bxveg0en/af0f5fcb/</text>
    <text x="30" y="630" class="t d">     (They open it, scan the QR code, and connect)</text>

  </g>
</svg>
